<?xml version="1.0" standalone="no"?><!DOCTYPE svg PUBLIC "-//W3C//DTD SVG 1.1//EN" "http://www.w3.org/Graphics/SVG/1.1/DTD/svg11.dtd"><svg t="1738631286758" class="icon" viewBox="0 0 1024 1024" version="1.1" xmlns="http://www.w3.org/2000/svg" p-id="4564" xmlns:xlink="http://www.w3.org/1999/xlink" width="200" height="200"><path d="M431 831a8 8 0 0 1 8 8v48a8 8 0 0 1-8 8h-96a8 8 0 0 1-8-8v-48a8 8 0 0 1 8-8h96z m-168 0a8 8 0 0 1 8 8v48a8 8 0 0 1-8 8h-96a8 8 0 0 1-8-8v-48a8 8 0 0 1 8-8h96z m594 0a8 8 0 0 1 8 8v48a8 8 0 0 1-8 8h-96a8 8 0 0 1-8-8v-48a8 8 0 0 1 8-8h96z m-168 0a8 8 0 0 1 8 8v48a8 8 0 0 1-8 8h-96a8 8 0 0 1-8-8v-48a8 8 0 0 1 8-8h96z" fill="#44D7B6" p-id="4565"></path><path d="M544 720l0.001 50.403C581.85 783.625 609 819.642 609 862c0 53.572-43.428 97-97 97s-97-43.428-97-97c0-42.359 27.151-78.376 65-91.598V720h64z m-32 110c-17.673 0-32 14.327-32 32 0 17.673 14.327 32 32 32 17.673 0 32-14.327 32-32 0-17.673-14.327-32-32-32zM833 64c17.673 0 32 14.327 32 32v232c0 17.673-14.327 32-32 32H193c-17.673 0-32-14.327-32-32V96c0-17.673 14.327-32 32-32h640z m-32 64H225v168h576V128z m32 296c17.673 0 32 14.327 32 32v232c0 17.673-14.327 32-32 32H193c-17.673 0-32-14.327-32-32V456c0-17.673 14.327-32 32-32h640z m-32 64H225v168h576V488z" fill="#1C6EFF" p-id="4566"></path><path d="M535 540a8 8 0 0 1 8 8v48a8 8 0 0 1-8 8H289a8 8 0 0 1-8-8v-48a8 8 0 0 1 8-8h246z m138 0a8 8 0 0 1 8 8v48a8 8 0 0 1-8 8h-50a8 8 0 0 1-8-8v-48a8 8 0 0 1 8-8h50zM535 180a8 8 0 0 1 8 8v48a8 8 0 0 1-8 8H289a8 8 0 0 1-8-8v-48a8 8 0 0 1 8-8h246z m138 0a8 8 0 0 1 8 8v48a8 8 0 0 1-8 8h-50a8 8 0 0 1-8-8v-48a8 8 0 0 1 8-8h50z" fill="#44D7B6" p-id="4567"></path></svg>